<?xml version="1.0" encoding="utf-8"?>
<!-- Generator: Adobe Illustrator 21.1.0, SVG Export Plug-In . SVG Version: 6.00 Build 0)  -->
<svg version="1.1" id="Layer_1" xmlns="http://www.w3.org/2000/svg" xmlns:xlink="http://www.w3.org/1999/xlink" x="0px" y="0px"
	 viewBox="0 0 138.2 55" style="enable-background:new 0 0 138.2 55;" xml:space="preserve">
<style type="text/css">
	.st0{fill:#40B4E5;}
	.st1{font-family:'LynstoneTrial-Bold';}
	.st2{font-size:19.18px;}
	.st3{fill:#FFFFFF;}
</style>
<g id="Layer_2">
	<text transform="matrix(1 0 0 1 0 14.8)" class="st0 st1 st2">G</text>
	<text transform="matrix(1 0 0 1 14.59 14.8)" class="st3 st1 st2">O</text>
	<text transform="matrix(1 0 0 1 30.41 14.8)" class="st3 st1 st2">VERNMEN</text>
	<text transform="matrix(1 0 0 1 127.1 14.8)" class="st3 st1 st2">T</text>
	<text transform="matrix(1 0 0 1 0 33.98)" class="st0 st1 st2">O</text>
	<text transform="matrix(1 0 0 1 16.2 33.98)" class="st3 st1 st2">U</text>
	<text transform="matrix(1 0 0 1 30.2 33.98)" class="st3 st1 st2">T</text>
	<text transform="matrix(1 0 0 1 41.04 33.98)" class="st3 st1 st2">C</text>
	<text transform="matrix(1 0 0 1 54.23 33.98)" class="st3 st1 st2">OM</text>
	<text transform="matrix(1 0 0 1 87.9 33.98)" class="st3 st1 st2">E</text>
	<text transform="matrix(1 0 0 1 99.52 33.98)" class="st3 st1 st2">S</text>
	<text transform="matrix(1 0 0 1 0 53.15)" class="st0 st1 st2">LA</text>
	<text transform="matrix(1 0 0 1 25.39 53.15)" class="st0 st1 st2">B</text>
</g>
</svg>
