<svg xmlns="http://www.w3.org/2000/svg" viewBox="0 0 40.21 40.21"><defs><style>.cls-1,.cls-2{fill:none;stroke-miterlimit:10;}.cls-1{stroke:#8ac7df;}.cls-2{stroke:#0091c0;}</style></defs><title>quote</title><g id="Layer_2" data-name="Layer 2"><g id="Layer_1-2" data-name="Layer 1"><path class="cls-1" d="M30.48,21.43a4.34,4.34,0,0,0-4.1-3.67,4.11,4.11,0,0,1,3.21-3,.17.17,0,0,0,.12-.19L29.48,13s0-.12-.22-.1c-5.13.57-8.6,4.48-8,9.22a4.8,4.8,0,0,0,5.53,4.22,4.37,4.37,0,0,0,3.64-5ZM14.12,17.77a4.11,4.11,0,0,1,3.21-3,.17.17,0,0,0,.12-.19L17.24,13s0-.12-.22-.1c-5.15.57-8.58,4.48-8,9.22a4.85,4.85,0,0,0,5.56,4.22,4.33,4.33,0,0,0,3.62-5A4.27,4.27,0,0,0,14.12,17.77Z"/><circle class="cls-2" cx="20.11" cy="20.11" r="19.61" transform="translate(-8.33 20.11) rotate(-45)"/></g></g></svg>