<svg xmlns="http://www.w3.org/2000/svg" viewBox="0 0 75.35 75.35">
  <defs>
    <style>
      .cls-1{fill:#40b4e5;}.cls-2{fill:#041e41;}.cls-3{fill:#00609c;}.cls-4{fill:#fff;}
    </style>
  </defs>
  <g id="Layer_2" data-name="Layer 2">
    <g id="Layer_1-2" data-name="Layer 1">
      <path class="cls-1" d="M11.61 33.39a198.25 198.25 0 0 1 33-8.21V13.83a198.11 198.11 0 0 0-33 8.21zM44.56 2.49v11.34a194.54 194.54 0 0 1 30.79-2.49V0a194.54 194.54 0 0 0-30.79 2.49"/>
      <path class="cls-2" d="M44.56 25.18a198.26 198.26 0 0 0-33 8.21C6.15 35.27 2.19 36.93 0 37.91v37.44h75.35V22.69a194.54 194.54 0 0 0-30.79 2.49"/>
      <path class="cls-3" d="M44.56 25.18a194.54 194.54 0 0 1 30.79-2.49V11.35a194.54 194.54 0 0 0-30.79 2.49z"/>
      <path class="cls-4" d="M23.27 42.94a.17.17 0 0 1 .17-.17h1.94a1.62 1.62 0 0 1 .95 3.05 1.57 1.57 0 0 1 1.06 1.45A1.76 1.76 0 0 1 25.46 49h-2a.17.17 0 0 1-.17-.17zm2.26 5.45a1.09 1.09 0 0 0 1.12-1.13 1.18 1.18 0 0 0-1.27-1.09h-1.47v2.22zm-.15-2.83a1 1 0 0 0 1.06-1.11 1 1 0 0 0-1.06-1.06h-1.45v2.17zM28.72 42.94a.17.17 0 0 1 .17-.17h.35a.17.17 0 0 1 .17.17v5.45H32a.17.17 0 0 1 .17.17v.26A.17.17 0 0 1 32 49h-3.11a.17.17 0 0 1-.17-.17zM33.38 48.75l2.7-6a.16.16 0 0 1 .15-.1h.09a.16.16 0 0 1 .15.1l2.68 6A.16.16 0 0 1 39 49h-.35a.16.16 0 0 1-.15-.1l-.66-1.46h-3.16L34 48.89a.16.16 0 0 1-.15.1h-.36a.16.16 0 0 1-.15-.23m4.21-1.88c-.43-1-.86-1.94-1.3-2.91h-.07l-1.3 2.91zM38.65 43a.16.16 0 0 1 .15-.23h.36a.16.16 0 0 1 .15.1l2.21 5 2.21-5a.17.17 0 0 1 .15-.1h.36a.16.16 0 0 1 .15.23l-2.7 6a.17.17 0 0 1-.15.1h-.09a.18.18 0 0 1-.15-.1zM44.09 48.75l2.7-6a.16.16 0 0 1 .15-.1H47a.16.16 0 0 1 .15.1l2.68 6a.16.16 0 0 1-.15.23h-.35a.16.16 0 0 1-.15-.1l-.66-1.46h-3.13l-.65 1.46a.16.16 0 0 1-.15.1h-.36a.16.16 0 0 1-.15-.23m4.21-1.88c-.43-1-.86-1.94-1.3-2.91h-.07l-1.3 2.91zM51.79 43.37h-1.55a.17.17 0 0 1-.17-.17v-.26a.17.17 0 0 1 .17-.17H54a.17.17 0 0 1 .17.17v.26a.17.17 0 0 1-.17.17h-1.54v5.45a.17.17 0 0 1-.17.17H52a.17.17 0 0 1-.17-.17zM55.24 42.85a.17.17 0 0 1 .17-.16h.22l4 5v-4.75a.17.17 0 0 1 .17-.17h.31a.17.17 0 0 1 .17.17v6a.17.17 0 0 1-.17.16H60L55.89 44v4.83a.17.17 0 0 1-.17.17h-.31a.17.17 0 0 1-.17-.17z"/>
      <rect class="cls-4" x="61.84" y="42.78" width=".69" height="6.21" rx=".17" ry=".17"/>
      <path class="cls-4" d="M64.07 43a.21.21 0 0 1 .21-.21h.26a.22.22 0 0 1 .21.21v2.5l2.77-2.63a.26.26 0 0 1 .17-.09h.43a.17.17 0 0 1 .11.31l-2.8 2.62 2.94 3a.17.17 0 0 1-.15.27h-.45a.24.24 0 0 1-.16-.06l-2.85-3v2.82a.22.22 0 0 1-.21.21h-.26a.21.21 0 0 1-.21-.21zM17.27 57.22l.13-.17c.09-.11.19-.19.31-.08a2.46 2.46 0 0 0 1.5.67 1.07 1.07 0 0 0 1.19-1c0-.61-.53-1-1.55-1.4s-1.56-.83-1.56-1.84a1.69 1.69 0 0 1 1.89-1.58 2.9 2.9 0 0 1 1.52.45.2.2 0 0 1 .05.3l-.11.17a.2.2 0 0 1-.31.08 2.48 2.48 0 0 0-1.16-.41c-.94 0-1.22.6-1.22 1 0 .59.45.94 1.2 1.25 1.2.49 2 .94 2 2a1.76 1.76 0 0 1-1.92 1.6 2.89 2.89 0 0 1-1.87-.72.19.19 0 0 1-.05-.3M25.24 51.85a3.12 3.12 0 0 1 2.15.83.17.17 0 0 1 0 .25l-.24.24c-.07.09-.14.08-.23 0a2.69 2.69 0 0 0-1.69-.66 2.55 2.55 0 0 0 0 5.1 2.58 2.58 0 0 0 1.69-.67.17.17 0 0 1 .21 0l.27.24a.17.17 0 0 1 0 .24 3 3 0 0 1-2.16.86 3.19 3.19 0 1 1 0-6.39M28.85 52.11a.17.17 0 0 1 .17-.17h.35a.17.17 0 0 1 .17.17v2.59h3.6v-2.59a.17.17 0 0 1 .17-.17h.35a.17.17 0 0 1 .17.17V58a.17.17 0 0 1-.17.17h-.36a.17.17 0 0 1-.17-.17v-2.7h-3.6V58a.17.17 0 0 1-.17.17H29a.17.17 0 0 1-.17-.17zM38.27 51.85a3.19 3.19 0 1 1-3.18 3.2 3.19 3.19 0 0 1 3.18-3.2m0 5.77a2.57 2.57 0 1 0-2.56-2.56 2.58 2.58 0 0 0 2.56 2.56M45.64 51.85a3.19 3.19 0 1 1-3.18 3.2 3.19 3.19 0 0 1 3.18-3.2m0 5.77a2.57 2.57 0 1 0-2.56-2.56 2.58 2.58 0 0 0 2.56 2.56M50.1 52.11a.17.17 0 0 1 .17-.17h.35a.17.17 0 0 1 .17.17v5.45h2.55a.17.17 0 0 1 .17.17V58a.17.17 0 0 1-.17.17h-3.07a.17.17 0 0 1-.17-.17zM60 51.85a3.19 3.19 0 1 1-3.18 3.2 3.19 3.19 0 0 1 3.18-3.2m0 5.77a2.57 2.57 0 1 0-2.56-2.56A2.58 2.58 0 0 0 60 57.62M64.51 52.11a.17.17 0 0 1 .17-.17h3.49a.17.17 0 0 1 .17.17v.26a.17.17 0 0 1-.17.17h-3V55h2.55a.17.17 0 0 1 .17.17v.26a.17.17 0 0 1-.17.17h-2.53V58a.17.17 0 0 1-.17.17h-.35a.17.17 0 0 1-.17-.17zM10.56 61a3.12 3.12 0 0 1 2.15.83.17.17 0 0 1 0 .25l-.25.25c-.08.09-.13.08-.23 0a2.69 2.69 0 0 0-1.69-.69 2.56 2.56 0 0 0 0 5.11 3.34 3.34 0 0 0 1.6-.37v-1.24h-1A.16.16 0 0 1 11 65v-.33a.16.16 0 0 1 .17-.17h1.53a.17.17 0 0 1 .16.17v2a.22.22 0 0 1-.07.14 4.38 4.38 0 0 1-2.19.59 3.19 3.19 0 1 1 0-6.39M17 61a3.19 3.19 0 1 1-3.18 3.2A3.19 3.19 0 0 1 17 61m0 5.77a2.57 2.57 0 1 0-2.56-2.56A2.58 2.58 0 0 0 17 66.79M20.75 61.34a.16.16 0 0 1 .15-.23h.36a.16.16 0 0 1 .15.1l2.21 5 2.21-5a.17.17 0 0 1 .15-.1h.36a.16.16 0 0 1 .15.23l-2.7 6a.17.17 0 0 1-.15.1h-.09a.18.18 0 0 1-.15-.1zM27.57 61.28a.17.17 0 0 1 .17-.17h3.49a.17.17 0 0 1 .17.17v.26a.17.17 0 0 1-.17.17h-3v2.16h2.57a.18.18 0 0 1 .2.13v.26a.17.17 0 0 1-.17.17h-2.58v2.26h3a.17.17 0 0 1 .17.17v.26a.17.17 0 0 1-.17.17h-3.51a.17.17 0 0 1-.17-.17zM32.91 61.28a.17.17 0 0 1 .17-.17h2.3A1.91 1.91 0 0 1 37.31 63 2 2 0 0 1 36 64.81l1.21 2.25a.17.17 0 0 1-.15.26h-.45a.15.15 0 0 1-.14-.08l-1.18-2.35h-1.7v2.26a.17.17 0 0 1-.17.17h-.35a.17.17 0 0 1-.17-.17zm2.42 3a1.27 1.27 0 1 0 0-2.55h-1.72v2.57zM38.86 61.18A.17.17 0 0 1 39 61h.22l4 5v-4.72a.17.17 0 0 1 .17-.17h.31a.17.17 0 0 1 .17.17v6a.17.17 0 0 1-.17.16h-.16l-4.07-5.08v4.83a.17.17 0 0 1-.17.17H39a.17.17 0 0 1-.17-.17zM46.34 61.14a.17.17 0 0 1 .16-.14h.14a.17.17 0 0 1 .15.1l1.76 4.9 1.73-4.89a.17.17 0 0 1 .15-.1h.14a.17.17 0 0 1 .16.12l1.14 6c0 .12 0 .21-.16.21h-.35a.18.18 0 0 1-.16-.12l-.79-4.57-1.63 4.68a.18.18 0 0 1-.15.1h-.16a.18.18 0 0 1-.15-.1l-1.65-4.68-.77 4.57a.17.17 0 0 1-.16.12h-.35c-.13 0-.19-.09-.16-.21zM53.2 61.28a.17.17 0 0 1 .17-.17h3.49a.17.17 0 0 1 .17.17v.26a.17.17 0 0 1-.17.17h-3v2.16h2.55a.18.18 0 0 1 .17.17v.26a.17.17 0 0 1-.17.17h-2.53v2.26h3a.17.17 0 0 1 .17.17v.26a.17.17 0 0 1-.17.17h-3.51a.17.17 0 0 1-.17-.17zM58.36 61.18a.17.17 0 0 1 .17-.16h.22l4 5v-4.74a.17.17 0 0 1 .17-.17h.31a.17.17 0 0 1 .17.17v6a.17.17 0 0 1-.17.16h-.16L59 62.32v4.83a.17.17 0 0 1-.17.17h-.31a.17.17 0 0 1-.17-.17zM66.19 61.7h-1.54a.17.17 0 0 1-.17-.17v-.26a.17.17 0 0 1 .17-.17h3.76a.17.17 0 0 1 .17.17v.26a.17.17 0 0 1-.17.17h-1.54v5.45a.17.17 0 0 1-.17.17h-.34a.17.17 0 0 1-.17-.17z"/>
    </g>
  </g>
</svg>