<?xml version="1.0" encoding="utf-8"?>
<!-- Generator: Adobe Illustrator 21.1.0, SVG Export Plug-In . SVG Version: 6.00 Build 0)  -->
<svg version="1.1" id="Layer_1" xmlns="http://www.w3.org/2000/svg" xmlns:xlink="http://www.w3.org/1999/xlink" x="0px" y="0px"
	 viewBox="0 0 129.7 51" style="enable-background:new 0 0 129.7 51;" xml:space="preserve">
<style type="text/css">
	.st0{fill:#041E41;}
	.st1{font-family:'LynstoneTrial-Bold';}
	.st2{font-size:18px;}
	.st3{fill:#40B4E5;}
</style>
<g id="Layer_2">
	<text transform="matrix(1 0 0 1 0 13.8)" class="st0 st1 st2">G</text>
	<text transform="matrix(1 0 0 1 13.7 13.8)" class="st3 st1 st2">O</text>
	<text transform="matrix(1 0 0 1 28.55 13.8)" class="st3 st1 st2">VERNMEN</text>
	<text transform="matrix(1 0 0 1 119.3 13.8)" class="st3 st1 st2">T</text>
	<text transform="matrix(1 0 0 1 0 31.8)" class="st0 st1 st2">O</text>
	<text transform="matrix(1 0 0 1 15.21 31.8)" class="st3 st1 st2">U</text>
	<text transform="matrix(1 0 0 1 28.35 31.8)" class="st3 st1 st2">T</text>
	<text transform="matrix(1 0 0 1 38.52 31.8)" class="st3 st1 st2">C</text>
	<text transform="matrix(1 0 0 1 50.91 31.8)" class="st3 st1 st2">OM</text>
	<text transform="matrix(1 0 0 1 82.51 31.8)" class="st3 st1 st2">E</text>
	<text transform="matrix(1 0 0 1 93.42 31.8)" class="st3 st1 st2">S</text>
	<text transform="matrix(1 0 0 1 0 49.8)" class="st0 st1 st2">LA</text>
	<text transform="matrix(1 0 0 1 23.83 49.8)" class="st0 st1 st2">B</text>
</g>
</svg>
